<svg width="1124" height="308" viewBox="0 0 1124 308" version="1.1" xmlns="http://www.w3.org/2000/svg" xmlns:xlink="http://www.w3.org/1999/xlink">
<title>Group 4.1</title>
<desc>Created using Figma</desc>
<g id="Canvas" transform="matrix(4 0 0 4 -75924 2896)">
<g id="Group 4.1">
<g id="Group 3">
<g id="Group 4.3">
<g id="bairon">
<use xlink:href="#path0_fill" transform="translate(18975 -738)" fill="url(#paint0_linear)"/>
</g>
<g id="ai">
<use xlink:href="#path1_fill" transform="translate(19033 -738)" fill="url(#paint1_linear)"/>
</g>
</g>
</g>
</g>
</g>
<defs>
<linearGradient id="paint0_linear" x1="0" y1="0" x2="1" y2="0" gradientUnits="userSpaceOnUse" gradientTransform="matrix(-5.7308e-06 128.5 -340.351 -1.91329e-05 317.176 27)">
<stop offset="0" stop-color="#B777E0"/>
<stop offset="0.751381" stop-color="#805FCA"/>
</linearGradient>
<linearGradient id="paint1_linear" x1="0" y1="0" x2="1" y2="0" gradientUnits="userSpaceOnUse" gradientTransform="matrix(4.95982e-15 111 -81 6.79679e-15 81 -6.79679e-15)">
<stop offset="0" stop-color="#6AB8D9"/>
<stop offset="1" stop-color="#47849E"/>
</linearGradient>
<path id="path0_fill" d="M 39.072 63.368C 39.072 54.152 35.68 49.544 28.896 49.544C 27.424 49.544 25.952 49.736 24.48 50.12C 23.072 50.504 21.92 50.984 21.024 51.56L 21.024 77.576C 21.728 77.704 22.624 77.832 23.712 77.96C 24.8 78.024 25.984 78.056 27.264 78.056C 31.168 78.056 34.112 76.712 36.096 74.024C 38.08 71.336 39.072 67.784 39.072 63.368ZM 53.664 63.752C 53.664 67.784 53.056 71.432 51.84 74.696C 50.688 77.96 48.992 80.744 46.752 83.048C 44.512 85.352 41.76 87.144 38.496 88.424C 35.232 89.64 31.52 90.248 27.36 90.248C 25.632 90.248 23.808 90.152 21.888 89.96C 20.032 89.832 18.176 89.64 16.32 89.384C 14.528 89.128 12.8 88.84 11.136 88.52C 9.472 88.136 8 87.752 6.72 87.368L 6.72 16.808L 21.024 14.504L 21.024 39.656C 22.624 38.952 24.288 38.408 26.016 38.024C 27.744 37.64 29.6 37.448 31.584 37.448C 35.168 37.448 38.336 38.088 41.088 39.368C 43.84 40.584 46.144 42.344 48 44.648C 49.856 46.952 51.264 49.736 52.224 53C 53.184 56.2 53.664 59.784 53.664 63.752ZM 83.9535 79.016C 85.3615 79.016 86.7055 78.984 87.9855 78.92C 89.2655 78.856 90.2895 78.76 91.0575 78.632L 91.0575 67.784C 90.4815 67.656 89.6175 67.528 88.4655 67.4C 87.3135 67.272 86.2575 67.208 85.2975 67.208C 83.9535 67.208 82.6735 67.304 81.4575 67.496C 80.3055 67.624 79.2815 67.912 78.3855 68.36C 77.4895 68.808 76.7855 69.416 76.2735 70.184C 75.7615 70.952 75.5055 71.912 75.5055 73.064C 75.5055 75.304 76.2415 76.872 77.7135 77.768C 79.2495 78.6 81.3295 79.016 83.9535 79.016ZM 82.8015 37.16C 87.0255 37.16 90.5455 37.64 93.3615 38.6C 96.1775 39.56 98.4175 40.936 100.082 42.728C 101.809 44.52 103.025 46.696 103.729 49.256C 104.434 51.816 104.786 54.664 104.786 57.8L 104.786 87.56C 102.738 88.008 99.8895 88.52 96.2415 89.096C 92.5935 89.736 88.1775 90.056 82.9935 90.056C 79.7295 90.056 76.7535 89.768 74.0655 89.192C 71.4415 88.616 69.1695 87.688 67.2495 86.408C 65.3295 85.064 63.8575 83.336 62.8335 81.224C 61.8095 79.112 61.2975 76.52 61.2975 73.448C 61.2975 70.504 61.8735 68.008 63.0255 65.96C 64.2415 63.912 65.8415 62.28 67.8255 61.064C 69.8095 59.848 72.0815 58.984 74.6415 58.472C 77.2015 57.896 79.8575 57.608 82.6095 57.608C 84.4655 57.608 86.0975 57.704 87.5055 57.896C 88.9775 58.024 90.1615 58.216 91.0575 58.472L 91.0575 57.128C 91.0575 54.696 90.3215 52.744 88.8495 51.272C 87.3775 49.8 84.8175 49.064 81.1695 49.064C 78.7375 49.064 76.3375 49.256 73.9695 49.64C 71.6015 49.96 69.5535 50.44 67.8255 51.08L 66.0015 39.56C 66.8335 39.304 67.8575 39.048 69.0735 38.792C 70.3535 38.472 71.7295 38.216 73.2015 38.024C 74.6735 37.768 76.2095 37.576 77.8095 37.448C 79.4735 37.256 81.1375 37.16 82.8015 37.16ZM 132.024 89L 117.72 89L 117.72 38.504L 132.024 38.504L 132.024 89ZM 133.368 23.912C 133.368 26.536 132.504 28.616 130.776 30.152C 129.112 31.624 127.128 32.36 124.824 32.36C 122.52 32.36 120.504 31.624 118.776 30.152C 117.112 28.616 116.28 26.536 116.28 23.912C 116.28 21.288 117.112 19.24 118.776 17.768C 120.504 16.232 122.52 15.464 124.824 15.464C 127.128 15.464 129.112 16.232 130.776 17.768C 132.504 19.24 133.368 21.288 133.368 23.912ZM 175.902 51.176C 174.622 50.856 173.118 50.536 171.39 50.216C 169.662 49.832 167.806 49.64 165.822 49.64C 164.926 49.64 163.838 49.736 162.558 49.928C 161.342 50.056 160.414 50.216 159.774 50.408L 159.774 89L 145.47 89L 145.47 41.192C 148.03 40.296 151.038 39.464 154.494 38.696C 158.014 37.864 161.918 37.448 166.206 37.448C 166.974 37.448 167.902 37.512 168.99 37.64C 170.078 37.704 171.166 37.832 172.254 38.024C 173.342 38.152 174.43 38.344 175.518 38.6C 176.606 38.792 177.534 39.048 178.302 39.368L 175.902 51.176ZM 232.264 63.656C 232.264 67.624 231.688 71.272 230.537 74.6C 229.385 77.864 227.721 80.68 225.545 83.048C 223.368 85.352 220.745 87.144 217.672 88.424C 214.665 89.704 211.273 90.344 207.496 90.344C 203.784 90.344 200.393 89.704 197.32 88.424C 194.313 87.144 191.72 85.352 189.544 83.048C 187.369 80.68 185.673 77.864 184.457 74.6C 183.241 71.272 182.633 67.624 182.633 63.656C 182.633 59.688 183.241 56.072 184.457 52.808C 185.736 49.544 187.464 46.76 189.641 44.456C 191.88 42.152 194.504 40.36 197.513 39.08C 200.584 37.8 203.913 37.16 207.496 37.16C 211.145 37.16 214.472 37.8 217.48 39.08C 220.552 40.36 223.177 42.152 225.353 44.456C 227.528 46.76 229.225 49.544 230.44 52.808C 231.657 56.072 232.264 59.688 232.264 63.656ZM 217.672 63.656C 217.672 59.24 216.776 55.784 214.984 53.288C 213.256 50.728 210.76 49.448 207.496 49.448C 204.233 49.448 201.704 50.728 199.912 53.288C 198.121 55.784 197.224 59.24 197.224 63.656C 197.224 68.072 198.121 71.592 199.912 74.216C 201.704 76.776 204.233 78.056 207.496 78.056C 210.76 78.056 213.256 76.776 214.984 74.216C 216.776 71.592 217.672 68.072 217.672 63.656ZM 243.345 40.232C 245.777 39.528 248.913 38.888 252.753 38.312C 256.593 37.672 260.625 37.352 264.849 37.352C 269.137 37.352 272.689 37.928 275.505 39.08C 278.385 40.168 280.657 41.736 282.321 43.784C 283.985 45.832 285.169 48.264 285.873 51.08C 286.577 53.896 286.929 57.032 286.929 60.488L 286.929 89L 272.625 89L 272.625 62.216C 272.625 57.608 272.017 54.344 270.801 52.424C 269.585 50.504 267.313 49.544 263.985 49.544C 262.961 49.544 261.873 49.608 260.721 49.736C 259.569 49.8 258.545 49.896 257.649 50.024L 257.649 89L 243.345 89L 243.345 40.232Z"/>
<path id="path1_fill" d="M 26.016 79.016C 27.424 79.016 28.768 78.984 30.048 78.92C 31.328 78.856 32.352 78.76 33.12 78.632L 33.12 67.784C 32.544 67.656 31.68 67.528 30.528 67.4C 29.376 67.272 28.32 67.208 27.36 67.208C 26.016 67.208 24.736 67.304 23.52 67.496C 22.368 67.624 21.344 67.912 20.448 68.36C 19.552 68.808 18.848 69.416 18.336 70.184C 17.824 70.952 17.568 71.912 17.568 73.064C 17.568 75.304 18.304 76.872 19.776 77.768C 21.312 78.6 23.392 79.016 26.016 79.016ZM 24.864 37.16C 29.088 37.16 32.608 37.64 35.424 38.6C 38.24 39.56 40.48 40.936 42.144 42.728C 43.872 44.52 45.088 46.696 45.792 49.256C 46.496 51.816 46.848 54.664 46.848 57.8L 46.848 87.56C 44.8 88.008 41.952 88.52 38.304 89.096C 34.656 89.736 30.24 90.056 25.056 90.056C 21.792 90.056 18.816 89.768 16.128 89.192C 13.504 88.616 11.232 87.688 9.312 86.408C 7.392 85.064 5.92 83.336 4.896 81.224C 3.872 79.112 3.36 76.52 3.36 73.448C 3.36 70.504 3.936 68.008 5.088 65.96C 6.304 63.912 7.904 62.28 9.888 61.064C 11.872 59.848 14.144 58.984 16.704 58.472C 19.264 57.896 21.92 57.608 24.672 57.608C 26.528 57.608 28.16 57.704 29.568 57.896C 31.04 58.024 32.224 58.216 33.12 58.472L 33.12 57.128C 33.12 54.696 32.384 52.744 30.912 51.272C 29.44 49.8 26.88 49.064 23.232 49.064C 20.8 49.064 18.4 49.256 16.032 49.64C 13.664 49.96 11.616 50.44 9.888 51.08L 8.064 39.56C 8.896 39.304 9.92 39.048 11.136 38.792C 12.416 38.472 13.792 38.216 15.264 38.024C 16.736 37.768 18.272 37.576 19.872 37.448C 21.536 37.256 23.2 37.16 24.864 37.16ZM 74.0865 89L 59.7825 89L 59.7825 38.504L 74.0865 38.504L 74.0865 89ZM 75.4305 23.912C 75.4305 26.536 74.5665 28.616 72.8385 30.152C 71.1745 31.624 69.1905 32.36 66.8865 32.36C 64.5825 32.36 62.5665 31.624 60.8385 30.152C 59.1745 28.616 58.3425 26.536 58.3425 23.912C 58.3425 21.288 59.1745 19.24 60.8385 17.768C 62.5665 16.232 64.5825 15.464 66.8865 15.464C 69.1905 15.464 71.1745 16.232 72.8385 17.768C 74.5665 19.24 75.4305 21.288 75.4305 23.912Z"/>
</defs>
</svg>
